<svg xmlns="http://www.w3.org/2000/svg" xmlns:xlink="http://www.w3.org/1999/xlink" id="Camada_1" x="0px" y="0px" viewBox="0 0 352.5 204.7" style="enable-background:new 0 0 352.5 204.7;" xml:space="preserve"> <style type="text/css"> .st0{fill-rule:evenodd;clip-rule:evenodd;fill:url(#SVGID_1_);} .st1{fill-rule:evenodd;clip-rule:evenodd;fill:url(#SVGID_2_);} .st2{fill-rule:evenodd;clip-rule:evenodd;fill:url(#SVGID_3_);} .st3{fill-rule:evenodd;clip-rule:evenodd;fill:url(#SVGID_4_);} .st4{fill:#373435;} </style> <g id="Camada_x0020_1"> <g id="_809003040"> <linearGradient id="SVGID_1_" gradientUnits="userSpaceOnUse" x1="42846.3672" y1="23411.9883" x2="42846.3672" y2="24734.9062" gradientTransform="matrix(2.834646e-02 0 0 2.834646e-02 -981.0429 -569.647)"> <stop offset="0" style="stop-color:#081716"></stop> <stop offset="0.8706" style="stop-color:#0F4C3C"></stop> <stop offset="1" style="stop-color:#178262"></stop> </linearGradient> <polygon class="st0" points="310.1,94 310.1,94 212.1,94 156.9,131.5 254.9,131.5 "></polygon> <linearGradient id="SVGID_2_" gradientUnits="userSpaceOnUse" x1="42846.3672" y1="22013.623" x2="42846.3672" y2="23335.6426" gradientTransform="matrix(2.834646e-02 0 0 2.834646e-02 -981.0429 -569.647)"> <stop offset="0" style="stop-color:#081716"></stop> <stop offset="0.8706" style="stop-color:#0F4C3C"></stop> <stop offset="1" style="stop-color:#178262"></stop> </linearGradient> <polygon class="st1" points="212.1,91.8 310.1,91.8 310.1,91.8 254.9,54.4 156.9,54.4 "></polygon> <g> <linearGradient id="SVGID_3_" gradientUnits="userSpaceOnUse" x1="38782.3711" y1="20692.0723" x2="38782.3711" y2="22014.9883" gradientTransform="matrix(2.834646e-02 0 0 2.834646e-02 -981.0429 -569.647)"> <stop offset="0" style="stop-color:#081716"></stop> <stop offset="0.8706" style="stop-color:#0F4C3C"></stop> <stop offset="1" style="stop-color:#178262"></stop> </linearGradient> <polygon class="st2" points="41.7,54.4 139.7,54.4 194.9,16.9 96.9,16.9 "></polygon> <linearGradient id="SVGID_4_" gradientUnits="userSpaceOnUse" x1="38782.3711" y1="22089.0723" x2="38782.3711" y2="23411.9883" gradientTransform="matrix(2.834646e-02 0 0 2.834646e-02 -981.0429 -569.647)"> <stop offset="0" style="stop-color:#081716"></stop> <stop offset="0.8706" style="stop-color:#0F4C3C"></stop> <stop offset="1" style="stop-color:#178262"></stop> </linearGradient> <polygon class="st3" points="96.9,94 194.9,94 139.7,56.5 41.7,56.5 41.7,56.5 "></polygon> </g> </g> <path class="st4" d="M13,173.7h18.4c9.5,0,12-3.8,12-7.4c0-3.1-2.3-5.7-5.9-6.6v-0.1c3.1-0.7,4.9-2.7,4.9-5.4 c0-3.4-2.4-6.8-10.4-6.8H13v6.3h2.3v13.6H13V173.7z M25.7,168v-5.2h2.8c2.7,0,3.6,1,3.6,2.6c0,1.8-1.2,2.5-4.1,2.5L25.7,168 L25.7,168z M25.7,158.1v-4.8h2.6c2.6,0,3.5,0.8,3.5,2.4c0,1.7-1,2.4-3.6,2.4L25.7,158.1L25.7,158.1z M46,173.7h25.5v-10.5h-6.4v4.2 h-6.3v-13.6h2.5v-6.3H46v6.3h2.4v13.6H46V173.7z M73.2,173.7h25.5v-10.5h-6.4v4.2H86v-13.6h2.5v-6.3H73.2v6.3h2.4v13.6h-2.4V173.7z M135.3,162.2c-0.7,4-2.3,5.9-5,5.9c-3.1,0-4.5-2.3-4.5-7.4c0-5.4,1.7-7.3,4.3-7.3c2.1,0,3.8,1.3,4.6,3.8h6.7v-9.6H135v1.7 c-1.9-1.5-4.7-2.3-7.6-2.3c-7.6,0-13.2,5.7-13.2,13.6c0,5.5,3,13.5,15.1,13.5c8.2,0,11.7-4.3,13-9.6L135.3,162.2z M145.5,160.6 c0,6.2,4.7,13.6,15.1,13.6c10.5,0,15.1-7.4,15.1-13.6c0-6.2-4.7-13.6-15.1-13.6C150.1,147,145.5,154.4,145.5,160.6z M157.1,160.6 c0-4.9,0.6-7.4,3.5-7.4c2.8,0,3.5,2.5,3.5,7.4s-0.6,7.4-3.5,7.4C157.7,168,157.1,165.5,157.1,160.6z M179,173.7h10.4v-6.3h-2.1 v-14.5h0.1l7.9,20.8h4l8-20.8h0.1v14.5h-2.1v6.3h13.9v-6.3h-2.1v-13.6h2.1v-6.3h-16l-4.1,10.1l-3.9-10.1H179v6.3h2.1v13.6H179 V173.7L179,173.7z M222.3,173.7H238v-6.3h-2.7v-3.6h6.2c8.7,0,10.7-4.9,10.7-8.1c0-4.4-3.3-8.2-11.8-8.2h-18.1v6.3h2.6v13.6h-2.6 L222.3,173.7L222.3,173.7z M235.3,158.1v-4.8h2.5c2.6,0,3.5,0.8,3.5,2.4c0,1.5-1,2.4-3.2,2.4L235.3,158.1L235.3,158.1z M254.4,173.7H269v-6.3h-2V163h3.3l5.8,10.7h9.7v-6.3h-1.9l-3.7-6c2.4-1,3.9-3.4,3.9-6.1c0-1.6-0.5-3.5-2.1-5 c-2.2-2.2-5.1-2.8-12.7-2.8h-14.9v6.3h2.2v13.6h-2.2L254.4,173.7L254.4,173.7z M267,158.3v-5h3c2.1,0,3.2,1,3.2,2.5 s-1.1,2.5-3.3,2.5H267z M286.5,173.7h10.6V168h-2.2l1.1-3.3h6.9l1,3.3h-2.3v5.7h14v-6.3h-2l-5.1-13.6h2.2v-6.3h-19.3v6.3h2.2 l-5,13.6h-2v6.3H286.5z M297.1,161.4l2.4-7.2h0.1l2.2,7.2H297.1z M317.5,173.7h6V172c1.8,1.3,4.2,2.1,6.4,2.1c5,0,8.8-3.4,8.8-7.9 c0-2.5-1.3-4.7-2.3-5.7c-3.1-3-8.9-4.6-10.1-5.8c-0.3-0.3-0.5-0.7-0.5-1.2c0-1,0.7-1.6,2-1.6c1.8,0,3,0.9,3.7,2.7l0.1,0.3h6v-7.4 h-6v1.6c-1.6-1.3-3.7-2-6-2c-5,0-8.4,3.1-8.4,7.7c0,2.1,0.7,3.8,2.4,5.5c2.9,2.8,7.6,3.5,9.4,5.2c0.5,0.5,0.7,0.9,0.7,1.4 c0,1-0.8,1.7-2.1,1.7c-2,0-3.3-1-4.1-3.4h-6V173.7L317.5,173.7z"></path> </g> </svg>